<svg width="40" height="40" viewBox="0 0 40 40" fill="none" xmlns="http://www.w3.org/2000/svg">
<path d="M32.4999 20.9533L19.9999 33.3333L7.49993 20.9533C6.67544 20.151 6.026 19.1867 5.59251 18.1211C5.15902 17.0554 4.95087 15.9116 4.98116 14.7616C5.01145 13.6115 5.27954 12.4802 5.76853 11.4389C6.25752 10.3976 6.95682 9.46876 7.82241 8.71097C8.68799 7.95318 9.70111 7.38282 10.798 7.0358C11.8948 6.68879 13.0516 6.57264 14.1955 6.69467C15.3395 6.8167 16.4458 7.17426 17.4447 7.74484C18.4437 8.31543 19.3137 9.08667 19.9999 10.01C20.6892 9.09337 21.5602 8.32887 22.5584 7.76434C23.5567 7.19982 24.6608 6.84742 25.8015 6.7292C26.9422 6.61099 28.0951 6.7295 29.1879 7.07732C30.2807 7.42514 31.29 7.99479 32.1525 8.75061C33.0151 9.50642 33.7123 10.4321 34.2006 11.4698C34.689 12.5075 34.9578 13.6348 34.9904 14.7812C35.0231 15.9276 34.8187 17.0683 34.3902 18.1321C33.9616 19.1958 33.3181 20.1597 32.4999 20.9633" stroke="#46312C" stroke-width="3" stroke-linecap="round" stroke-linejoin="round"/>
</svg>
