<svg width="60" height="60" viewBox="0 0 60 60" fill="none" xmlns="http://www.w3.org/2000/svg">
<g clip-path="url(#clip0_17_2)">
<path d="M40.5558 23.6609L39.0321 21.3512H38.3282H21.6733H21.0867L19.4398 23.4894V36.933L21.6733 38.5682V23.2503H28.8591V38.6488H31.1175V23.2503H38.3282V38.6488H38.3326L40.5617 37.1779V23.6565L40.5558 23.6609Z" fill="black"/>
<path d="M19.9809 1.85809L21.0969 4.92313L20.701 5.06979L19.585 2.00475L19.9809 1.85809Z" fill="black"/>
<path d="M21.314 2.99611C21.2538 2.76293 21.1996 2.57082 21.138 2.3875L21.4988 2.29511L21.6117 2.65588H21.6249C21.6601 2.50946 21.7354 2.37576 21.8424 2.2698C21.9494 2.16384 22.0838 2.08982 22.2305 2.05607C22.3717 2.01828 22.5212 2.02632 22.6575 2.07904C22.7937 2.13176 22.9097 2.22643 22.9887 2.34937H22.999C23.0317 2.21855 23.0917 2.09611 23.175 1.99007C23.2895 1.84156 23.4524 1.73781 23.6354 1.69677C23.9361 1.61904 24.4317 1.69677 24.6341 2.48869L24.9773 3.8247L24.5755 3.92882L24.244 2.64414C24.1326 2.20419 23.9053 1.98714 23.5724 2.0722C23.4636 2.10535 23.3677 2.17135 23.2978 2.26114C23.228 2.35093 23.1876 2.46012 23.1823 2.57375C23.1774 2.64576 23.1843 2.71809 23.2028 2.78786L23.5621 4.1884L23.1603 4.29252L22.8098 2.93305C22.7174 2.57229 22.4901 2.34644 22.1763 2.43297C22.061 2.4705 21.9602 2.54283 21.8877 2.64C21.8153 2.73716 21.7747 2.8544 21.7715 2.97558C21.7655 3.04606 21.772 3.11705 21.7906 3.18529L22.1425 4.55356L21.7407 4.65769L21.314 2.99611Z" fill="black"/>
<path d="M25.3703 2.18071C25.3322 1.88741 25.2926 1.64396 25.2544 1.42545L25.6328 1.37559L25.7032 1.77155H25.7134C25.7785 1.61767 25.8843 1.48444 26.0194 1.38624C26.1546 1.28804 26.314 1.22858 26.4804 1.21427C27.0421 1.14241 27.526 1.56331 27.617 2.2687C27.724 3.10316 27.2679 3.58858 26.7209 3.65164C26.5811 3.67595 26.4373 3.6636 26.3037 3.6158C26.17 3.56799 26.051 3.48636 25.9584 3.37887H25.9481L26.1109 4.64154L25.7002 4.69581L25.3703 2.18071ZM25.8674 2.74679C25.8765 2.80452 25.8902 2.86142 25.9085 2.91691C25.962 3.05389 26.0597 3.16903 26.1863 3.24398C26.3128 3.31893 26.4607 3.34938 26.6065 3.33047C27.0465 3.27327 27.265 2.87438 27.1931 2.34203C27.133 1.87568 26.8382 1.50904 26.391 1.56624C26.2423 1.58986 26.1056 1.66213 26.0024 1.77173C25.8992 1.88133 25.8352 2.02207 25.8205 2.17191C25.8107 2.23003 25.8082 2.28916 25.8132 2.3479L25.8674 2.74679Z" fill="black"/>
<path d="M28.054 0.0234644L28.4792 0L28.6743 3.43021L28.249 3.45367L28.054 0.0234644Z" fill="black"/>
<path d="M29.5894 2.29512C29.5894 2.87147 29.9545 3.11491 30.3798 3.12077C30.6018 3.13251 30.8237 3.09495 31.0295 3.01079L31.0969 3.31729C30.849 3.41536 30.5832 3.46033 30.3168 3.44928C29.5952 3.43754 29.1729 2.95652 29.1832 2.24966C29.1934 1.54279 29.6231 0.994312 30.3021 1.00604C31.0676 1.01778 31.2597 1.69384 31.2524 2.12354C31.2508 2.18984 31.245 2.25598 31.2348 2.32152L29.5894 2.29512ZM30.8432 2.01061C30.852 1.74077 30.742 1.31695 30.264 1.30962C29.8328 1.30228 29.6378 1.69678 29.5996 1.99155L30.8432 2.01061Z" fill="black"/>
<path d="M31.88 1.70263C31.9094 1.46212 31.9284 1.26267 31.9387 1.07056L32.3083 1.11749L32.2804 1.49438H32.2951C32.3811 1.37075 32.5001 1.27374 32.6385 1.21437C32.777 1.15501 32.9293 1.13567 33.0782 1.15855C33.2232 1.17452 33.3593 1.23609 33.4671 1.33439C33.5749 1.43268 33.6487 1.56264 33.678 1.70556H33.6882C33.7659 1.5956 33.8658 1.50317 33.9815 1.43426C34.1425 1.34024 34.3314 1.30548 34.5153 1.336C34.8233 1.37413 35.2486 1.6293 35.1547 2.43883L34.9846 3.8071L34.571 3.75577L34.7338 2.43589C34.7896 1.99594 34.6605 1.70263 34.3188 1.65717C34.2055 1.64821 34.0922 1.67438 33.9944 1.73211C33.8965 1.78984 33.8188 1.87633 33.7718 1.9798C33.7417 2.0454 33.7214 2.11507 33.7117 2.18658L33.5342 3.62231L33.1207 3.57098L33.2937 2.17925C33.3407 1.80969 33.2101 1.51931 32.889 1.47972C32.7677 1.47232 32.6471 1.50277 32.5439 1.56687C32.4406 1.63097 32.3598 1.72555 32.3127 1.83755C32.2802 1.90068 32.2598 1.96932 32.2525 2.03993L32.078 3.44193L31.6659 3.3906L31.88 1.70263Z" fill="black"/>
<path d="M36.0566 2.96238C35.929 3.5226 36.2282 3.8423 36.6432 3.94349C36.8578 4.00392 37.083 4.01693 37.3031 3.98162V4.29546C37.0389 4.3353 36.7692 4.31982 36.5112 4.24999C35.8117 4.07694 35.5067 3.51673 35.6768 2.82746C35.8469 2.1382 36.3822 1.6997 37.045 1.86395C37.7871 2.04727 37.8237 2.74387 37.7211 3.16623C37.7045 3.23051 37.6839 3.29369 37.6595 3.35541L36.0566 2.96238ZM37.3427 2.96238C37.4116 2.69988 37.3999 2.26285 36.935 2.14846C36.5171 2.0458 36.2384 2.38604 36.1343 2.66468L37.3427 2.96238Z" fill="black"/>
<path d="M38.4045 2.94039C38.4836 2.71161 38.5511 2.52243 38.5951 2.33472L38.9515 2.45937L38.8473 2.83334H38.8561C38.9741 2.72865 39.1185 2.65837 39.2737 2.63018C39.4289 2.60199 39.5888 2.61697 39.736 2.67348C40.0425 2.78054 40.4546 3.12811 40.1892 3.88777L39.7287 5.20764L39.3254 5.06099L39.7654 3.78658C39.89 3.43021 39.8607 3.08705 39.4823 2.95506C39.3596 2.91413 39.2269 2.9137 39.1039 2.95383C38.9809 2.99396 38.874 3.07253 38.7989 3.17797C38.758 3.23128 38.7268 3.29134 38.7066 3.35542L38.2417 4.68556L37.8399 4.53891L38.4045 2.94039Z" fill="black"/>
<path d="M41.9666 2.9008L41.6953 3.51674L42.254 3.76165L42.1235 4.05496L41.5647 3.81005L41.0573 4.96567C40.94 5.23111 40.9488 5.4159 41.1659 5.51122C41.2416 5.54547 41.3214 5.56963 41.4034 5.58308L41.2934 5.87639C41.1652 5.86707 41.0398 5.83374 40.9239 5.77813C40.8443 5.74804 40.772 5.70136 40.7118 5.64118C40.6516 5.581 40.605 5.50871 40.5749 5.4291C40.5147 5.26484 40.5587 5.0566 40.6702 4.80435L41.1835 3.63113L40.852 3.48448L40.9825 3.19118L41.314 3.33783L41.5384 2.83334L41.9666 2.9008Z" fill="black"/>
<path d="M44.5021 4.17227L44.1736 4.75888L44.7045 5.05218L44.5461 5.33522L44.0152 5.04192L43.3979 6.14328C43.2512 6.39699 43.2512 6.58324 43.455 6.69616C43.5268 6.73777 43.6037 6.76982 43.6838 6.79148L43.5445 7.08479C43.4181 7.06163 43.2969 7.01593 43.1867 6.94987C43.11 6.9131 43.0421 6.86009 42.988 6.7945C42.9338 6.72891 42.8945 6.65232 42.8729 6.57004C42.8289 6.40139 42.8934 6.19754 43.0283 5.95703L43.6516 4.84247L43.3348 4.66502L43.4932 4.38198L43.8099 4.55943L44.0842 4.06961L44.5021 4.17227Z" fill="black"/>
<path d="M45.8278 4.4465L46.1813 4.68261L45.3703 5.89836H45.3791C45.5086 5.83291 45.6539 5.80498 45.7985 5.8177C45.9523 5.82719 46.1007 5.87784 46.2282 5.96436C46.4907 6.13887 46.8016 6.57883 46.3528 7.25197L45.58 8.40612L45.2251 8.17001L45.9715 7.05105C46.1813 6.73722 46.2414 6.39258 45.907 6.17114C45.7992 6.10283 45.6728 6.0698 45.5453 6.07663C45.4179 6.08346 45.2957 6.12982 45.1958 6.20927C45.1416 6.24924 45.0953 6.29898 45.0594 6.35592L44.2748 7.52914L43.9214 7.29303L45.8278 4.4465Z" fill="black"/>
<path d="M46.9453 8.0835C46.5904 8.53665 46.7253 8.95168 47.0568 9.22005C47.2272 9.36634 47.4273 9.47391 47.6433 9.53536L47.507 9.81693C47.2507 9.74215 47.0132 9.61367 46.8104 9.44003C46.2502 8.98541 46.215 8.346 46.6637 7.79752C47.1125 7.24904 47.7827 7.07746 48.3121 7.50422C48.906 7.98671 48.6406 8.63638 48.3693 8.97074C48.3277 9.02311 48.2821 9.07215 48.2329 9.1174L46.9453 8.0835ZM48.1068 8.63198C48.2813 8.4252 48.4558 8.02483 48.0833 7.72273C47.7489 7.45142 47.3501 7.6406 47.1403 7.84885L48.1068 8.63198Z" fill="black"/>
<path d="M48.6127 10.9946L50.2654 9.33298L50.5675 9.63362L48.9148 11.2937L48.6127 10.9946ZM51.0705 9.201C51.0203 9.24533 50.9551 9.26891 50.8882 9.26696C50.8212 9.26501 50.7575 9.23767 50.7099 9.19049C50.6624 9.14331 50.6345 9.07981 50.6321 9.01286C50.6296 8.94592 50.6527 8.88053 50.6966 8.82996C50.7208 8.80436 50.7501 8.78396 50.7825 8.77003C50.8149 8.75609 50.8498 8.7489 50.885 8.7489C50.9203 8.7489 50.9552 8.75609 50.9876 8.77003C51.02 8.78396 51.0492 8.80436 51.0735 8.82996C51.0989 8.85379 51.1192 8.88263 51.1329 8.91467C51.1467 8.94672 51.1536 8.98126 51.1533 9.01612C51.1531 9.05099 51.1456 9.08542 51.1313 9.11724C51.1171 9.14906 51.0964 9.17758 51.0705 9.201Z" fill="black"/>
<path d="M53.2981 11.0151L51.1659 12.8761C51.0089 13.0125 50.8344 13.1694 50.7259 13.2882L50.4751 12.9949L50.7684 12.7133H50.7611C50.603 12.7509 50.4376 12.7433 50.2836 12.6914C50.1296 12.6396 49.9932 12.5455 49.89 12.42C49.5175 11.9933 49.5967 11.3495 50.129 10.8816C50.7156 10.3669 51.3917 10.4153 51.7671 10.8464C51.8648 10.9454 51.9343 11.0687 51.9683 11.2036C52.0024 11.3384 51.9997 11.4799 51.9607 11.6134L51.968 11.6208L53.021 10.7013L53.2981 11.0151ZM51.4768 12.0417C51.5221 12.0024 51.563 11.9581 51.5985 11.9097C51.6841 11.7946 51.7277 11.6536 51.7218 11.5102C51.7159 11.3668 51.661 11.2299 51.5662 11.1221C51.2729 10.7892 50.8139 10.8479 50.4238 11.1881C50.066 11.5005 49.9237 11.9331 50.2258 12.2792C50.3227 12.389 50.4542 12.4623 50.5985 12.4871C50.7428 12.5119 50.8912 12.4867 51.0192 12.4156C51.0719 12.3855 51.1211 12.3496 51.1659 12.3086L51.4768 12.0417Z" fill="black"/>
<path d="M52.1206 13.3234C51.6601 13.6666 51.6806 14.1036 51.9314 14.4497C52.0555 14.6343 52.2181 14.7899 52.408 14.9058L52.2027 15.1419C51.9756 15.0019 51.7807 14.8155 51.6307 14.5949C51.2084 14.0083 51.3374 13.3835 51.9152 12.97C52.493 12.5564 53.1838 12.5696 53.5826 13.1166C54.0226 13.737 53.6017 14.2898 53.2527 14.5465C53.1982 14.5847 53.1414 14.6195 53.0826 14.6506L52.1206 13.3234ZM53.0987 14.1578C53.3216 14.0112 53.5944 13.6622 53.3143 13.2779C53.0635 12.9289 52.6309 13.0081 52.3713 13.1533L53.0987 14.1578Z" fill="black"/>
<path d="M53.1119 16.8108L53.348 16.6304V16.6187C53.2102 16.603 53.0781 16.555 52.9624 16.4785C52.8467 16.4021 52.7507 16.2993 52.6822 16.1787C52.6292 16.103 52.5925 16.0172 52.5743 15.9267C52.5562 15.8361 52.557 15.7427 52.5767 15.6525C52.5964 15.5622 52.6345 15.477 52.6888 15.4023C52.7431 15.3275 52.8122 15.2648 52.8919 15.2181C53.3788 14.9248 53.9023 15.202 54.3584 15.9822L54.3995 15.9573C54.5667 15.8575 54.8394 15.6332 54.593 15.224C54.4824 15.0377 54.3225 14.8855 54.1311 14.784L54.3217 14.5582C54.5612 14.6854 54.7599 14.8775 54.8951 15.1125C55.2618 15.727 54.9318 16.1274 54.5285 16.3679L53.7762 16.8166C53.6128 16.9101 53.4577 17.0176 53.3128 17.1378L53.1119 16.8108ZM54.1062 16.145C53.8774 15.7402 53.5357 15.3296 53.1456 15.5584C53.0967 15.582 53.0535 15.6159 53.0189 15.6578C52.9843 15.6997 52.9592 15.7486 52.9453 15.8011C52.9313 15.8536 52.9289 15.9085 52.9382 15.9621C52.9475 16.0156 52.9682 16.0665 52.999 16.1112C53.0588 16.2202 53.1517 16.3073 53.2643 16.36C53.3768 16.4127 53.5032 16.4283 53.6252 16.4046C53.6704 16.3951 53.7139 16.3788 53.7542 16.3562L54.1062 16.145Z" fill="black"/>
<path d="M55.0961 17.8682C55.1872 17.8249 55.2891 17.8096 55.3889 17.8243C55.4887 17.8391 55.5818 17.8832 55.6565 17.951C55.7312 18.0188 55.7841 18.1072 55.8084 18.2051C55.8327 18.303 55.8274 18.406 55.7931 18.5008C55.7587 18.5957 55.697 18.6782 55.6157 18.7379C55.5344 18.7976 55.4372 18.8318 55.3364 18.8362C55.2356 18.8405 55.1358 18.8148 55.0497 18.7623C54.9635 18.7098 54.8949 18.6329 54.8526 18.5413C54.8238 18.4812 54.8072 18.416 54.8038 18.3494C54.8005 18.2829 54.8104 18.2163 54.8331 18.1537C54.8558 18.091 54.8907 18.0335 54.9358 17.9844C54.981 17.9354 55.0355 17.8959 55.0961 17.8682Z" fill="black"/>
<path d="M58.1464 19.9917L55.0799 21.1063L54.9333 20.7103L57.9997 19.5957L58.1464 19.9917Z" fill="black"/>
<path d="M57.0069 21.3248C57.2415 21.2646 57.4322 21.2104 57.6155 21.1473L57.7093 21.5081L57.3471 21.621V21.6357C57.4938 21.6704 57.6277 21.7455 57.7337 21.8526C57.8398 21.9597 57.9136 22.0944 57.9469 22.2413C57.9845 22.3825 57.9763 22.5319 57.9236 22.6682C57.8709 22.8044 57.7764 22.9204 57.6536 22.9995V23.0098C57.7853 23.0421 57.9084 23.1026 58.0144 23.1872C58.1637 23.301 58.2677 23.4643 58.3077 23.6477C58.3854 23.941 58.3077 24.4426 57.5158 24.645L56.1798 24.9881L56.0757 24.5848L57.3603 24.2549C57.8003 24.1434 58.0173 23.9161 57.9322 23.5847C57.8996 23.4757 57.834 23.3795 57.7444 23.3094C57.6549 23.2393 57.5458 23.1986 57.4322 23.1931C57.3638 23.1908 57.2955 23.1993 57.2298 23.218L55.8278 23.5773L55.7237 23.174L57.0831 22.825C57.4439 22.7326 57.6697 22.5053 57.5847 22.1915C57.5471 22.0762 57.4748 21.9754 57.3777 21.9029C57.2805 21.8304 57.1633 21.7898 57.0421 21.7867C56.9711 21.7793 56.8994 21.7858 56.8309 21.8058L55.4627 22.1563L55.3586 21.753L57.0069 21.3248Z" fill="black"/>
<path d="M57.8164 25.3753C58.1097 25.3372 58.3531 25.2976 58.5731 25.2595L58.6215 25.6393L58.2255 25.7082V25.7185C58.3796 25.7836 58.513 25.8897 58.6112 26.0251C58.7094 26.1605 58.7688 26.3202 58.7828 26.4869C58.8547 27.0486 58.4338 27.5311 57.7284 27.6206C56.8925 27.7276 56.4086 27.2715 56.3455 26.7245C56.3213 26.5849 56.3337 26.4414 56.3815 26.308C56.4293 26.1746 56.5109 26.0559 56.6183 25.9634V25.9531L55.3556 26.1144L55.3028 25.6965L57.8164 25.3753ZM57.2503 25.8725C57.1925 25.8808 57.1355 25.8945 57.0802 25.9135C56.9435 25.9669 56.8286 26.0645 56.7536 26.1907C56.6787 26.3169 56.6481 26.4645 56.6667 26.6101C56.7239 27.0574 57.1213 27.2686 57.6551 27.1967C58.12 27.1381 58.4866 26.8418 58.4309 26.396C58.4075 26.2471 58.3354 26.1101 58.2258 26.0065C58.1161 25.903 57.9752 25.8388 57.8252 25.8241C57.7671 25.8143 57.7079 25.8118 57.6492 25.8167L57.2503 25.8725Z" fill="black"/>
<path d="M59.9765 28.0576L60 28.4829L56.5699 28.6765L56.5449 28.2512L59.9765 28.0576Z" fill="black"/>
<path d="M57.7035 29.5945C57.1286 29.5945 56.8852 29.9582 56.8778 30.3849C56.8679 30.6069 56.9054 30.8283 56.9878 31.0346L56.6828 31.1021C56.5835 30.8539 56.538 30.5875 56.5493 30.3204C56.5611 29.6004 57.0421 29.178 57.7489 29.1883C58.4558 29.1985 59.0057 29.6282 58.994 30.3072C58.9822 31.0713 58.3062 31.2634 57.875 31.2575C57.8088 31.2551 57.7427 31.2492 57.6771 31.2399L57.7035 29.5945ZM57.988 30.8469C58.2593 30.8572 58.6816 30.7472 58.6904 30.2691C58.6904 29.8379 58.3033 29.6429 58.0085 29.6048L57.988 30.8469Z" fill="black"/>
<path d="M58.2959 31.8896C58.5364 31.9204 58.7359 31.9395 58.928 31.9497L58.8811 32.3193L58.5042 32.2914V32.3061C58.6277 32.3923 58.7246 32.5113 58.7839 32.6497C58.8433 32.7881 58.8627 32.9404 58.84 33.0892C58.8238 33.2342 58.7622 33.3702 58.6639 33.478C58.5657 33.5857 58.4358 33.6596 58.293 33.689V33.6993C58.4022 33.7775 58.494 33.8773 58.5628 33.9926C58.6567 34.1537 58.6919 34.3423 58.6626 34.5264C58.623 34.8344 58.3693 35.2597 57.5583 35.1644L56.1901 34.9943L56.2414 34.5807L57.5612 34.7449C58.0012 34.8007 58.2945 34.6716 58.3399 34.3299C58.3489 34.2166 58.3227 34.1033 58.265 34.0055C58.2073 33.9076 58.1208 33.8299 58.0173 33.7829C57.9519 33.7524 57.8821 33.7321 57.8105 33.7228L56.3748 33.5439L56.4262 33.1303L57.8193 33.3048C58.1889 33.3503 58.4778 33.2212 58.5188 32.8986C58.5259 32.7775 58.4953 32.6573 58.4313 32.5543C58.3672 32.4514 58.2728 32.3708 58.161 32.3237C58.0979 32.2913 58.0293 32.2709 57.9586 32.2636L56.5567 32.0891L56.608 31.6755L58.2959 31.8896Z" fill="black"/>
<path d="M57.0348 36.0663C56.4731 35.9387 56.1549 36.2379 56.0522 36.6529C55.9933 36.8673 55.9803 37.0917 56.0141 37.3114H55.7017C55.6604 37.0477 55.6759 36.7782 55.7472 36.5209C55.9202 35.8214 56.4804 35.5164 57.1697 35.6865C57.8589 35.8566 58.2959 36.3933 58.1317 37.0547C57.9484 37.7983 57.2518 37.8335 56.8294 37.7308C56.7651 37.7139 56.7019 37.6928 56.6403 37.6678L57.0348 36.0663ZM57.0348 37.3524C57.2973 37.4214 57.7343 37.4096 57.8487 36.9448C57.9528 36.5268 57.6126 36.2482 57.3339 36.1455L57.0348 37.3524Z" fill="black"/>
<path d="M57.0567 38.4113C57.2855 38.4919 57.4732 38.5579 57.6609 38.6034L57.5363 38.9597L57.1638 38.8542V38.863C57.2682 38.9811 57.3383 39.1255 57.3665 39.2806C57.3946 39.4357 57.3798 39.5956 57.3237 39.7429C57.2166 40.0494 56.8676 40.46 56.1094 40.1946L54.7896 39.7341L54.9362 39.3308L56.2106 39.7707C56.5669 39.8954 56.9101 39.8675 57.0436 39.4877C57.0917 39.3317 57.0767 39.1631 57.0019 39.018C56.927 38.8729 56.7982 38.763 56.6432 38.7119L55.3131 38.247L55.4597 37.8452L57.0567 38.4113Z" fill="black"/>
<path d="M57.0963 41.972L56.4804 41.7007L56.234 42.2594L55.9407 42.1289L56.1871 41.5702L55.0301 41.0613C54.7646 40.9454 54.5798 40.9542 54.4845 41.1713C54.4501 41.2469 54.4259 41.3268 54.4127 41.4088L54.1194 41.2974C54.1289 41.1696 54.1622 41.0448 54.2176 40.9293C54.2469 40.8492 54.2934 40.7765 54.3536 40.7163C54.4139 40.656 54.4866 40.6096 54.5666 40.5803C54.7309 40.5201 54.9391 40.5641 55.1914 40.6756L56.3646 41.1889L56.5112 40.8574L56.8045 40.9879L56.6579 41.3194L57.1726 41.5467L57.0963 41.972Z" fill="black"/>
<path d="M55.8234 44.5091L55.2368 44.1806L54.9435 44.7129L54.6605 44.5546L54.9538 44.0222L53.8569 43.4048C53.6032 43.2581 53.4169 43.2581 53.304 43.4605C53.2623 43.5328 53.2303 43.6102 53.2087 43.6908L52.9154 43.5441C52.9379 43.4178 52.9831 43.2965 53.0488 43.1863C53.0862 43.1097 53.1396 43.0421 53.2054 42.988C53.2712 42.9338 53.3478 42.8944 53.4301 42.8724C53.5988 42.8285 53.8026 42.893 54.0431 43.0279L55.1576 43.6512L55.3351 43.3344L55.6167 43.5001L55.4392 43.8169L55.929 44.0911L55.8234 44.5091Z" fill="black"/>
<path d="M55.5463 45.8378L55.3102 46.1912L54.0944 45.3802V45.389C54.1594 45.5187 54.1873 45.6639 54.1751 45.8084C54.1646 45.962 54.1141 46.1102 54.0284 46.2381C53.8539 46.4992 53.4125 46.8115 52.7409 46.3613L51.5809 45.5885L51.817 45.2335L52.9374 45.9815C53.2512 46.1897 53.5944 46.2513 53.8173 45.917C53.8862 45.8094 53.9197 45.683 53.9132 45.5554C53.9066 45.4279 53.8602 45.3056 53.7806 45.2057C53.7407 45.151 53.691 45.1043 53.634 45.0678L52.4608 44.2832L52.6969 43.9298L55.5463 45.8378Z" fill="black"/>
<path d="M51.9094 46.9538C51.4562 46.5974 51.0412 46.7338 50.7728 47.0652C50.6274 47.2335 50.5199 47.431 50.4575 47.6445L50.1745 47.5096C50.2504 47.2535 50.3793 47.0161 50.5529 46.813C51.0075 46.2528 51.6469 46.2161 52.1968 46.6663C52.7467 47.1166 52.9154 47.7853 52.4901 48.3162C52.0076 48.9101 51.3565 48.6432 51.0236 48.3719C50.9716 48.3299 50.9226 48.2844 50.877 48.2355L51.9094 46.9538ZM51.3638 48.1153C51.5721 48.2898 51.9724 48.4658 52.2745 48.0933C52.5458 47.7589 52.3567 47.36 52.1484 47.1488L51.3638 48.1153Z" fill="black"/>
<path d="M48.9984 48.6198L50.6585 50.2725L50.3578 50.5746L48.6978 48.9219L48.9984 48.6198ZM50.789 51.0733C50.7411 51.0235 50.7146 50.957 50.7152 50.8879C50.7158 50.8189 50.7435 50.7529 50.7922 50.704C50.8409 50.655 50.9068 50.6272 50.9759 50.6263C51.0449 50.6254 51.1115 50.6516 51.1615 50.6993C51.1871 50.7235 51.2075 50.7528 51.2214 50.7852C51.2353 50.8176 51.2425 50.8525 51.2425 50.8877C51.2425 50.923 51.2353 50.9579 51.2214 50.9903C51.2075 51.0227 51.1871 51.0519 51.1615 51.0762C51.1375 51.1017 51.1085 51.1219 51.0764 51.1357C51.0442 51.1495 51.0096 51.1564 50.9746 51.1562C50.9396 51.1559 50.905 51.1484 50.8731 51.1341C50.8412 51.1198 50.8125 51.0991 50.789 51.0733Z" fill="black"/>
<path d="M48.9808 53.3024L47.1198 51.1701C46.9834 51.0131 46.8265 50.8372 46.7077 50.7301L47.001 50.4779L47.2826 50.7712H47.2899C47.2522 50.6131 47.2597 50.4475 47.3116 50.2935C47.3634 50.1395 47.4576 50.0031 47.5832 49.9C48.01 49.5275 48.6538 49.6067 49.1216 50.1376C49.6378 50.7242 49.5879 51.4003 49.1582 51.7757C49.059 51.8735 48.9355 51.9432 48.8005 51.9775C48.6654 52.0117 48.5237 52.0094 48.3898 51.9708H48.3825L49.3019 53.0252L48.9808 53.3024ZM47.9542 51.4795C47.9931 51.5257 48.0374 51.5671 48.0862 51.6027C48.2017 51.6882 48.3429 51.7316 48.4864 51.7257C48.6299 51.7199 48.7671 51.6651 48.8752 51.5704C49.2066 51.2771 49.148 50.8166 48.8077 50.4265C48.4968 50.0702 48.0628 49.9264 47.7167 50.2285C47.6072 50.3256 47.534 50.4571 47.5092 50.6013C47.4844 50.7455 47.5095 50.8939 47.5803 51.0219C47.6101 51.0748 47.6461 51.124 47.6873 51.1686L47.9542 51.4795Z" fill="black"/>
<path d="M46.6711 52.1277C46.3264 51.6657 45.8894 51.6877 45.5433 51.937C45.3586 52.0616 45.203 52.2247 45.0873 52.4151L44.8512 52.2098C44.9906 51.9819 45.1771 51.7864 45.3982 51.6364C45.9847 51.214 46.6095 51.3431 47.023 51.9209C47.4366 52.4987 47.4234 53.1894 46.869 53.5883C46.2487 54.0356 45.6959 53.6074 45.4392 53.2584C45.401 53.2044 45.3663 53.148 45.3351 53.0897L46.6711 52.1277ZM45.8352 53.1044C45.9818 53.3273 46.3294 53.6015 46.7151 53.3214C47.0641 53.0692 46.9849 52.6366 46.8397 52.377L45.8352 53.1044Z" fill="black"/>
<path d="M43.1808 53.1161L43.3612 53.3522L43.3729 53.3449C43.3879 53.2069 43.4356 53.0745 43.5122 52.9587C43.5887 52.8428 43.6918 52.747 43.8129 52.6791C43.8885 52.6262 43.9743 52.5896 44.0648 52.5715C44.1553 52.5535 44.2486 52.5544 44.3387 52.5743C44.4289 52.5941 44.5139 52.6324 44.5885 52.6868C44.6631 52.7412 44.7255 52.8105 44.772 52.8903C45.0653 53.3772 44.7881 53.9007 44.0079 54.3568L44.0328 54.3993C44.1326 54.5651 44.3569 54.8393 44.7661 54.5914C44.953 54.4815 45.1054 54.3215 45.206 54.1295L45.4319 54.3216C45.3042 54.5603 45.1121 54.7584 44.8775 54.8936C44.2631 55.2602 43.8627 54.9302 43.6222 54.5269L43.175 53.7746C43.0811 53.6114 42.9737 53.4563 42.8538 53.3112L43.1808 53.1161ZM43.8466 54.1119C44.2499 53.8817 44.662 53.5414 44.4332 53.1499C44.4096 53.1009 44.3756 53.0577 44.3337 53.0231C44.2918 52.9885 44.243 52.9634 44.1905 52.9495C44.138 52.9356 44.0831 52.9332 44.0295 52.9424C43.976 52.9517 43.9251 52.9724 43.8803 53.0032C43.7714 53.0639 43.6846 53.1578 43.6327 53.2712C43.5807 53.3846 43.5663 53.5116 43.5914 53.6338C43.6005 53.6787 43.6168 53.7218 43.6398 53.7614L43.8466 54.1119Z" fill="black"/>
<path d="M42.1249 55.1018C42.1676 55.1928 42.1822 55.2943 42.1671 55.3936C42.152 55.4929 42.1077 55.5854 42.0399 55.6596C41.9722 55.7337 41.8839 55.786 41.7864 55.8099C41.6888 55.8339 41.5864 55.8283 41.492 55.794C41.3976 55.7596 41.3156 55.6981 41.2562 55.617C41.1968 55.536 41.1629 55.4392 41.1586 55.3389C41.1543 55.2385 41.1798 55.1392 41.232 55.0534C41.2842 54.9676 41.3607 54.8992 41.4518 54.8569C41.512 54.8283 41.5773 54.812 41.6439 54.8088C41.7105 54.8057 41.777 54.8158 41.8396 54.8386C41.9022 54.8614 41.9597 54.8964 42.0087 54.9416C42.0577 54.9867 42.0972 55.0412 42.1249 55.1018Z" fill="black"/>
<path d="M39.9941 58.1493L38.8811 55.0827L39.277 54.9361L40.3901 58.0026L39.9941 58.1493Z" fill="black"/>
<path d="M38.6655 57.0097C38.7256 57.2444 38.7784 57.435 38.8415 57.6198L38.4807 57.7122L38.3678 57.3514H38.3531C38.3184 57.4981 38.2433 57.632 38.1362 57.7381C38.0291 57.8441 37.8944 57.918 37.7475 57.9513C37.6063 57.9886 37.457 57.9803 37.3208 57.9276C37.1846 57.875 37.0686 57.7806 36.9893 57.6579H36.979C36.9463 57.7892 36.8863 57.9121 36.803 58.0187C36.6879 58.1673 36.5246 58.2711 36.3411 58.312C36.0478 58.3883 35.5463 58.312 35.3439 57.5186L35.0007 56.1826L35.404 56.0785L35.734 57.3632C35.8454 57.8031 36.0727 58.0216 36.4056 57.9366C36.5143 57.9034 36.6101 57.8376 36.6801 57.7482C36.7502 57.6587 36.791 57.5499 36.7972 57.4365C36.8014 57.364 36.7945 57.2913 36.7767 57.2209L36.4174 55.8189L36.8206 55.7163L37.1682 57.0757C37.2606 57.4365 37.4879 57.6624 37.8017 57.5773C37.9173 57.54 38.0184 57.4678 38.0911 57.3706C38.1639 57.2734 38.2047 57.156 38.2079 57.0347C38.2139 56.9642 38.2074 56.8932 38.1889 56.825L37.8369 55.4552L38.2402 55.3526L38.6655 57.0097Z" fill="black"/>
<path d="M34.6136 57.8281C34.6517 58.1214 34.6928 58.3648 34.7294 58.5848L34.3511 58.6332L34.2807 58.2372H34.2704C34.205 58.3908 34.0991 58.5236 33.964 58.6215C33.8289 58.7194 33.6697 58.7787 33.5034 58.7931C32.9418 58.8649 32.4578 58.444 32.3684 57.7386C32.2613 56.9027 32.7174 56.4188 33.2644 56.3557C33.4042 56.3314 33.548 56.3437 33.6817 56.3915C33.8153 56.4393 33.9343 56.521 34.027 56.6285H34.0358L33.8745 55.3658L34.2924 55.3115L34.6136 57.8281ZM34.1164 57.2635C34.1081 57.2051 34.0944 57.1477 34.0754 57.0919C34.022 56.9552 33.9244 56.8402 33.7982 56.7653C33.672 56.6904 33.5244 56.6598 33.3788 56.6783C32.9388 56.7355 32.7203 57.1344 32.7922 57.6668C32.8523 58.1317 33.1471 58.4998 33.5944 58.4426C33.743 58.4191 33.8797 58.3471 33.9831 58.2378C34.0866 58.1285 34.151 57.9881 34.1663 57.8384C34.1737 57.7794 34.1737 57.7198 34.1663 57.6609L34.1164 57.2635Z" fill="black"/>
<path d="M31.927 59.9765L31.5017 60L31.3096 56.5698L31.7349 56.5463L31.927 59.9765Z" fill="black"/>
<path d="M30.4004 57.7034C30.4004 57.1285 30.0367 56.8851 29.6099 56.8778C29.388 56.8675 29.1664 56.9051 28.9603 56.9878L28.8928 56.6827C29.1404 56.5833 29.4064 56.5378 29.673 56.5493C30.3945 56.561 30.8168 57.042 30.8066 57.7489C30.7963 58.4558 30.3666 59.0057 29.6876 58.994C28.9236 58.9822 28.73 58.3062 28.7374 57.875C28.7391 57.8087 28.7449 57.7426 28.7549 57.677L30.4004 57.7034ZM29.1465 57.9879C29.1377 58.2592 29.2477 58.6816 29.7258 58.6904C30.1569 58.6904 30.352 58.3032 30.3901 58.0085L29.1465 57.9879Z" fill="black"/>
<path d="M28.098 58.2959C28.0686 58.5349 28.0481 58.7359 28.0393 58.9265L27.6697 58.881L27.6976 58.5041H27.6829C27.5965 58.6278 27.4773 58.7247 27.3386 58.7841C27.2 58.8435 27.0475 58.8628 26.8984 58.84C26.7536 58.8237 26.6178 58.762 26.5103 58.6637C26.4028 58.5655 26.3292 58.4357 26.3 58.293H26.2868C26.209 58.4024 26.1091 58.4943 25.9935 58.5628C25.8326 58.657 25.6437 58.6917 25.4597 58.6611C25.1518 58.6229 24.7265 58.3678 24.8233 57.5568L24.9949 56.1885L25.407 56.2398L25.2427 57.5597C25.187 57.9997 25.316 58.293 25.6563 58.3384C25.7697 58.3475 25.8833 58.3214 25.9814 58.2637C26.0795 58.2059 26.1575 58.1194 26.2047 58.0158C26.2353 57.9504 26.2556 57.8806 26.2648 57.809L26.4438 56.3733L26.8573 56.4246L26.6828 57.8178C26.6359 58.1874 26.7664 58.4763 27.0876 58.5174C27.2437 58.5185 27.3948 58.4622 27.5122 58.3592C27.6296 58.2562 27.7049 58.1136 27.724 57.9586L27.9 56.5551L28.3121 56.6079L28.098 58.2959Z" fill="black"/>
<path d="M23.9229 57.0332C24.0519 56.4715 23.7513 56.1533 23.3363 56.0506C23.1221 55.9906 22.8976 55.9771 22.6778 56.011V55.6987C22.9421 55.658 23.2121 55.674 23.4697 55.7456C24.1692 55.9187 24.4728 56.4789 24.3027 57.1681C24.1326 57.8574 23.5958 58.2944 22.933 58.1302C22.1909 57.9454 22.1557 57.2503 22.2599 56.8264C22.2758 56.762 22.2963 56.6987 22.3215 56.6373L23.9229 57.0332ZM22.6367 57.0332C22.5678 57.2943 22.5796 57.7313 23.0444 57.8457C23.4624 57.9498 23.741 57.6096 23.8451 57.3324L22.6367 57.0332Z" fill="black"/>
<path d="M21.5779 57.0538C21.4973 57.2811 21.4313 57.4702 21.3873 57.658L21.0309 57.5333L21.1351 57.1593H21.1263C21.0083 57.264 20.8639 57.3343 20.7087 57.3625C20.5535 57.3907 20.3936 57.3757 20.2464 57.3192C19.9399 57.2121 19.5293 56.8631 19.7947 56.1049L20.2566 54.785L20.6585 54.9317L20.2185 56.2061C20.0939 56.5625 20.1217 56.9056 20.5015 57.0376C20.624 57.0783 20.7562 57.0788 20.8789 57.039C21.0016 56.9991 21.1083 56.9211 21.1835 56.8162C21.2243 56.7621 21.256 56.7016 21.2773 56.6373L21.7422 55.3086L22.144 55.4552L21.5779 57.0538Z" fill="black"/>
<path d="M18.0188 57.0948L18.2901 56.4803L17.7328 56.234L17.8633 55.9407L18.4206 56.1856L18.9295 55.03C19.0468 54.7645 19.038 54.5812 18.8209 54.4859C18.7452 54.4513 18.6654 54.4267 18.5834 54.4125L18.6934 54.1119C18.8215 54.1227 18.9467 54.1565 19.0629 54.2116C19.1427 54.2411 19.2151 54.2876 19.2751 54.3479C19.3351 54.4082 19.3813 54.4808 19.4105 54.5607C19.4706 54.7249 19.4266 54.9317 19.3166 55.1839L18.8019 56.3572L19.1333 56.5038L19.0028 56.7971L18.6714 56.6505L18.4455 57.1637L18.0188 57.0948Z" fill="black"/>
<path d="M15.4817 55.8189L15.8102 55.2323L15.2794 54.939L15.4377 54.656L15.9701 54.9493L16.586 53.8479C16.7327 53.5942 16.7327 53.408 16.5303 53.295C16.4585 53.2531 16.3816 53.2206 16.3015 53.1982L16.4394 52.9049C16.5659 52.9266 16.6873 52.9719 16.7972 53.0384C16.8741 53.0753 16.942 53.1286 16.9962 53.1944C17.0504 53.2603 17.0896 53.3371 17.111 53.4197C17.155 53.5883 17.0919 53.7922 16.957 54.0327L16.3323 55.1473L16.6491 55.3247L16.4907 55.6077L16.1681 55.4362L15.8997 55.9216L15.4817 55.8189Z" fill="black"/>
<path d="M14.1531 55.5403L13.7982 55.3027L14.6106 54.0884C14.4804 54.1533 14.3348 54.1812 14.1898 54.1691C14.0366 54.1589 13.8888 54.1083 13.7615 54.0224C13.499 53.8479 13.1881 53.4065 13.6384 52.7348L14.4127 51.5763L14.7661 51.8124L14.0182 52.9313C13.8085 53.2452 13.7483 53.5883 14.0812 53.8112C14.1891 53.8799 14.3157 53.9132 14.4435 53.9067C14.5712 53.9001 14.6937 53.8539 14.794 53.7746C14.849 53.7327 14.8954 53.6804 14.9303 53.6206L15.7164 52.4474L16.0698 52.685L14.1531 55.5403Z" fill="black"/>
<path d="M13.04 51.9033C13.3949 51.4501 13.2585 51.0351 12.9286 50.7667C12.7581 50.6205 12.558 50.5129 12.342 50.4514L12.4784 50.1684C12.7345 50.2443 12.9718 50.3732 13.175 50.5468C13.7352 51.0014 13.7703 51.6408 13.3216 52.1893C12.8729 52.7378 12.2027 52.9079 11.6733 52.4826C11.0867 52.0001 11.3448 51.3504 11.6175 51.016C11.6595 50.9645 11.7046 50.9155 11.7525 50.8694L13.04 51.9033ZM11.8786 51.3534C11.7041 51.5601 11.5281 51.9605 11.9006 52.2626C12.2349 52.5339 12.6338 52.3447 12.8435 52.1379L11.8786 51.3534Z" fill="black"/>
<path d="M8.92066 50.7888C8.9442 50.7619 8.97318 50.7405 9.00568 50.7258C9.03817 50.711 9.07344 50.7034 9.10911 50.7034C9.14478 50.7034 9.18004 50.711 9.21254 50.7258C9.24503 50.7405 9.27402 50.7619 9.29755 50.7888C9.32231 50.8124 9.34201 50.8409 9.35547 50.8724C9.36892 50.9039 9.37586 50.9378 9.37586 50.9721C9.37586 51.0063 9.36892 51.0402 9.35547 51.0717C9.34201 51.1032 9.32231 51.1317 9.29755 51.1554C9.2733 51.181 9.24408 51.2014 9.21168 51.2153C9.17928 51.2293 9.14438 51.2365 9.10911 51.2365C9.07384 51.2365 9.03894 51.2293 9.00654 51.2153C8.97414 51.2014 8.94492 51.181 8.92066 51.1554C8.89572 51.1318 8.87585 51.1034 8.86227 51.0719C8.84869 51.0404 8.84169 51.0064 8.84169 50.9721C8.84169 50.9377 8.84869 50.9038 8.86227 50.8723C8.87585 50.8407 8.89572 50.8123 8.92066 50.7888ZM11.3756 48.9981L9.7155 50.6524L9.4222 50.3488L11.0764 48.6902L11.3756 48.9981Z" fill="black"/>
<path d="M6.6916 48.9717L8.82534 47.1107C8.98226 46.9743 9.15677 46.8174 9.26529 46.6986L9.51606 46.9919L9.22276 47.2735V47.2808C9.38085 47.2431 9.54636 47.2506 9.70039 47.3025C9.85442 47.3543 9.99076 47.4485 10.0939 47.5741C10.4663 48.0009 10.3872 48.6447 9.85482 49.1125C9.26822 49.6273 8.59217 49.5774 8.21675 49.1477C8.11905 49.0484 8.04961 48.9249 8.01559 48.7898C7.98156 48.6547 7.98418 48.513 8.02317 48.3793V48.3719L6.97023 49.2914L6.6916 48.9717ZM8.51445 47.9452C8.46786 47.9842 8.42646 48.0291 8.39126 48.0786C8.30561 48.1937 8.26208 48.3347 8.26795 48.4781C8.27383 48.6214 8.32875 48.7584 8.42352 48.8661C8.71682 49.1976 9.17583 49.1404 9.56592 48.8001C9.92374 48.4878 10.0675 48.0551 9.76536 47.709C9.66862 47.5991 9.53712 47.5256 9.39276 47.5007C9.24841 47.4759 9.09991 47.5013 8.97199 47.5727C8.91883 47.6015 8.86955 47.637 8.82534 47.6783L8.51445 47.9452Z" fill="black"/>
<path d="M7.86626 46.6605C8.3282 46.3158 8.3062 45.8788 8.05837 45.5327C7.93339 45.3483 7.77038 45.1928 7.58029 45.0766L7.7856 44.8405C8.01315 44.9804 8.20856 45.1668 8.359 45.3875C8.77988 45.9741 8.6523 46.6003 8.0657 47.0124C7.4791 47.4245 6.80452 47.4157 6.40563 46.8585C5.96568 46.2381 6.38657 45.6852 6.73559 45.4286C6.78991 45.3901 6.84674 45.3553 6.9057 45.3245L7.86626 46.6605ZM6.88957 45.8246C6.66667 45.9785 6.3939 46.3188 6.67253 46.7045C6.92477 47.055 7.35738 46.9758 7.61695 46.8306L6.88957 45.8246Z" fill="black"/>
<path d="M6.87931 43.1716L6.6432 43.352V43.3637C6.781 43.3794 6.91314 43.4274 7.02884 43.5039C7.14455 43.5803 7.24054 43.6831 7.30899 43.8037C7.36182 43.8794 7.39836 43.9653 7.4163 44.0559C7.43424 44.1464 7.43318 44.2398 7.41319 44.3299C7.3932 44.4201 7.35472 44.5051 7.30019 44.5796C7.24565 44.6541 7.17624 44.7165 7.09635 44.7628C6.61094 45.0561 6.0874 44.7789 5.62986 43.9987L5.5888 44.0237C5.42162 44.1234 5.14885 44.3463 5.39522 44.7569C5.50494 44.944 5.665 45.0964 5.85717 45.1969L5.66505 45.4242C5.42637 45.2965 5.22824 45.1044 5.09312 44.8699C4.7265 44.2539 5.05646 43.855 5.45975 43.6145L6.21352 43.1745C6.37653 43.0811 6.5311 42.9736 6.67547 42.8534L6.87931 43.1716ZM5.88503 43.8374C6.1138 44.2407 6.45403 44.6528 6.84558 44.424C6.8945 44.4004 6.93773 44.3665 6.97231 44.3246C7.00689 44.2827 7.03201 44.2338 7.04594 44.1813C7.05986 44.1288 7.06228 44.0739 7.05301 44.0203C7.04374 43.9668 7.023 43.9159 6.99223 43.8711C6.9313 43.7636 6.83795 43.678 6.72549 43.6266C6.61304 43.5753 6.48723 43.5608 6.36604 43.5852C6.3208 43.5946 6.27727 43.6109 6.23699 43.6336L5.88503 43.8374Z" fill="black"/>
<path d="M4.89515 42.1113C4.80402 42.1548 4.70202 42.1701 4.60213 42.1555C4.50224 42.1408 4.40898 42.0967 4.33421 42.0289C4.25943 41.961 4.20653 41.8725 4.18222 41.7745C4.15791 41.6765 4.1633 41.5735 4.19771 41.4786C4.23211 41.3837 4.29397 41.3011 4.37542 41.2415C4.45686 41.1818 4.55422 41.1477 4.65509 41.1435C4.75596 41.1394 4.8558 41.1653 4.9419 41.218C5.02799 41.2707 5.09646 41.3479 5.13858 41.4396C5.16719 41.4997 5.18359 41.5647 5.18682 41.6311C5.19005 41.6975 5.18005 41.7639 5.1574 41.8264C5.13475 41.8889 5.0999 41.9463 5.05487 41.9952C5.00985 42.0441 4.95556 42.0836 4.89515 42.1113Z" fill="black"/>
<path d="M1.84778 39.9834L4.91421 38.8718L5.06086 39.2677L1.99149 40.3764L1.84778 39.9834Z" fill="black"/>
<path d="M2.98871 38.6606C2.75407 38.7192 2.56343 38.7735 2.38011 38.8366L2.28773 38.4699L2.64848 38.3585V38.3438C2.50092 38.3096 2.36599 38.2344 2.25914 38.1271C2.15228 38.0197 2.07782 37.8844 2.04429 37.7367C2.00696 37.5955 2.01523 37.4462 2.06791 37.31C2.12059 37.1738 2.21498 37.0578 2.33759 36.9785V36.9682C2.20645 36.9356 2.08389 36.8751 1.9783 36.7908C1.82951 36.6764 1.72568 36.5134 1.685 36.3303C1.60874 36.037 1.685 35.5354 2.47837 35.333L3.81434 34.9899L3.91846 35.3932L2.63382 35.7231C2.19387 35.8346 1.97683 36.0619 2.06189 36.3948C2.09476 36.5035 2.16049 36.5994 2.25002 36.6692C2.33956 36.739 2.44853 36.7795 2.56196 36.7849C2.63389 36.7896 2.70611 36.7832 2.77607 36.7658L4.17657 36.4168L4.27922 36.8201L2.91978 37.1677C2.55903 37.26 2.33319 37.4874 2.41824 37.8012C2.47524 37.9464 2.58324 38.0659 2.72201 38.1371C2.86078 38.2084 3.02078 38.2266 3.17202 38.1884L4.54026 37.8364L4.64438 38.2397L2.98871 38.6606Z" fill="black"/>
<path d="M2.17774 34.6027C1.88444 34.6408 1.641 34.6804 1.42103 34.7185L1.3741 34.3387L1.77005 34.2683V34.2595C1.61615 34.1941 1.48297 34.088 1.38479 33.9526C1.28661 33.8172 1.22715 33.6577 1.21279 33.4911C1.1424 32.9294 1.56328 32.4469 2.26866 32.3574C3.10456 32.2504 3.58117 32.7065 3.65156 33.2535C3.67526 33.3934 3.66248 33.5372 3.61444 33.6707C3.5664 33.8043 3.48474 33.9233 3.37733 34.0161V34.0249L4.63998 33.865L4.69277 34.283L2.17774 34.6027ZM2.7438 34.1055C2.80167 34.0972 2.85862 34.0835 2.91392 34.0645C3.05062 34.0111 3.16557 33.9135 3.24049 33.7873C3.31542 33.6611 3.34603 33.5135 3.32747 33.3679C3.27174 32.9279 2.87285 32.7094 2.34052 32.7813C1.87417 32.8399 1.50755 33.1362 1.56474 33.582C1.58776 33.7308 1.65961 33.8678 1.76899 33.9713C1.87836 34.0749 2.01906 34.1391 2.16894 34.1539C2.22706 34.1637 2.28618 34.1662 2.34492 34.1613L2.7438 34.1055Z" fill="black"/>
<path d="M0.0234638 31.916L0 31.4907L3.43012 31.2986L3.45359 31.7239L0.0234638 31.916Z" fill="black"/>
<path d="M2.29652 30.3894C2.87285 30.3894 3.11629 30.0242 3.12216 29.5989C3.1339 29.3769 3.09633 29.155 3.01217 28.9492L3.31867 28.8818C3.41674 29.1298 3.4617 29.3955 3.45065 29.662C3.43892 30.3835 2.95791 30.8059 2.25106 30.7941C1.54421 30.7824 0.995747 30.3542 1.00748 29.6766C1.01921 28.9111 1.69526 28.719 2.12494 28.7263C2.19173 28.728 2.25835 28.7339 2.32439 28.7439L2.29652 30.3894ZM2.01202 29.1355C1.74219 29.1267 1.31837 29.2352 1.31104 29.7221C1.31104 30.1533 1.6982 30.3483 1.99296 30.3864L2.01202 29.1355Z" fill="black"/>
<path d="M1.70553 28.0928C1.46502 28.062 1.26558 28.0429 1.07347 28.0327L1.1204 27.6631L1.49729 27.691V27.6763C1.37379 27.5901 1.27688 27.4711 1.21752 27.3327C1.15817 27.1943 1.13875 27.042 1.16146 26.8932C1.17934 26.7489 1.24202 26.6138 1.34067 26.507C1.43932 26.4002 1.56898 26.327 1.71139 26.2978V26.289C1.6023 26.2107 1.51046 26.1109 1.44156 25.9957C1.34774 25.8345 1.3125 25.646 1.34184 25.4618C1.38143 25.1539 1.63514 24.7286 2.44611 24.8239L3.81581 24.9955L3.76301 25.409L2.44317 25.2433C2.00323 25.1876 1.70993 25.3167 1.66447 25.6584C1.65518 25.7715 1.68104 25.8848 1.73852 25.9827C1.796 26.0806 1.8823 26.1583 1.98563 26.2054C2.0514 26.2364 2.1217 26.2567 2.19387 26.2655L3.63543 26.4444L3.58264 26.858L2.19094 26.6835C1.82138 26.6365 1.53102 26.7656 1.49142 27.0882C1.48931 27.2445 1.54531 27.396 1.64854 27.5133C1.75177 27.6306 1.89489 27.7054 2.05015 27.7232L3.45212 27.8992L3.40079 28.3128L1.70553 28.0928Z" fill="black"/>
<path d="M2.96964 23.9117C3.53131 24.0408 3.84954 23.7401 3.95366 23.3251C4.01408 23.1105 4.02709 22.8853 3.99179 22.6652H4.30562C4.34547 22.929 4.32948 23.1983 4.25869 23.4556C4.08418 24.1552 3.52544 24.4587 2.83473 24.2886C2.14401 24.1185 1.70846 23.5803 1.87418 22.9189C2.05749 22.1768 2.75407 22.1416 3.17789 22.2443C3.24216 22.2615 3.30534 22.2825 3.36706 22.3073L2.96964 23.9117ZM2.96964 22.6315C2.70714 22.5625 2.27013 22.5728 2.15574 23.0377C2.05162 23.4556 2.39185 23.7343 2.66901 23.8384L2.96964 22.6315Z" fill="black"/>
<path d="M2.95058 21.5667C2.72181 21.4875 2.53263 21.4201 2.34639 21.3761L2.47104 21.0183L2.84353 21.1238V21.115C2.73908 20.9969 2.66908 20.8524 2.64115 20.6973C2.61322 20.5421 2.62844 20.3822 2.68515 20.2351C2.7922 19.9286 3.14122 19.518 3.8994 19.7834L5.21924 20.2454L5.07259 20.6487L3.79821 20.2087C3.44185 20.0841 3.0987 20.1119 2.96525 20.4918C2.91709 20.6478 2.93205 20.8164 3.00691 20.9615C3.08178 21.1065 3.21056 21.2164 3.3656 21.2676L4.69424 21.7325L4.54759 22.1357L2.95058 21.5667Z" fill="black"/>
<path d="M2.91392 18.0075L3.52984 18.2788L3.77475 17.7215L4.06804 17.852L3.82167 18.4093L4.97727 18.9182C5.2427 19.0355 5.42748 19.0267 5.5228 18.8097C5.55688 18.7338 5.5815 18.654 5.59613 18.5721L5.88943 18.6835C5.87993 18.8113 5.8466 18.9361 5.79117 19.0516C5.76349 19.1315 5.71889 19.2044 5.66042 19.2654C5.60196 19.3264 5.531 19.374 5.45241 19.4051C5.28816 19.4652 5.07992 19.4212 4.82769 19.3097L3.65449 18.795L3.50784 19.1264L3.21455 18.9959L3.3612 18.6645L2.84792 18.4372L2.91392 18.0075Z" fill="black"/>
<path d="M4.1883 15.4719L4.7749 15.8004L5.06819 15.268L5.35123 15.4279L5.05793 15.9587L6.16073 16.5776C6.41297 16.7243 6.60068 16.7243 6.7136 16.5204C6.7552 16.4486 6.78725 16.3717 6.80892 16.2916L7.10222 16.4383C7.08051 16.5649 7.03524 16.6862 6.96876 16.7961C6.93168 16.8727 6.87836 16.9404 6.81252 16.9943C6.74668 17.0482 6.66989 17.0872 6.58748 17.1085C6.41883 17.1525 6.21499 17.0894 5.97448 16.9618L4.85409 16.3254L4.67664 16.6421L4.39361 16.4823L4.57105 16.167L4.08125 15.8854L4.1883 15.4719Z" fill="black"/>
<path d="M4.46546 14.1432L4.70303 13.7897L5.91729 14.6022V14.5934C5.8525 14.4636 5.8246 14.3185 5.83663 14.174C5.84708 14.0204 5.89765 13.8722 5.98328 13.7443C6.15779 13.4832 6.59921 13.1723 7.27086 13.6211L8.42939 14.3954L8.19181 14.7503L7.07582 14.0024C6.76199 13.7927 6.41883 13.7311 6.19592 14.0655C6.12741 14.1731 6.09413 14.2995 6.1007 14.4269C6.10727 14.5544 6.15336 14.6767 6.23258 14.7767C6.27409 14.8322 6.32649 14.8786 6.38656 14.9131L7.55976 15.6992L7.32219 16.0526L4.46546 14.1432Z" fill="black"/>
<path d="M8.10236 13.0301C8.55697 13.385 8.97199 13.2501 9.24036 12.9186C9.38759 12.7488 9.49528 12.5485 9.55565 12.332L9.83869 12.4684C9.76258 12.724 9.63369 12.9608 9.46033 13.1635C9.00572 13.7238 8.36486 13.759 7.8164 13.3102C7.26793 12.8614 7.09782 12.1912 7.5231 11.6618C8.00557 11.0752 8.65523 11.3333 8.98959 11.6061C9.04161 11.6481 9.09062 11.6936 9.13624 11.7425L8.10236 13.0301ZM8.65376 11.8686C8.44699 11.6941 8.04663 11.5181 7.74454 11.8906C7.47324 12.225 7.66095 12.6239 7.86919 12.8336L8.65376 11.8686Z" fill="black"/>
<path d="M9.22129 8.91355C9.26542 8.96395 9.28873 9.02924 9.28652 9.09619C9.2843 9.16313 9.25671 9.22674 9.20935 9.2741C9.16198 9.32147 9.09838 9.34905 9.03143 9.35127C8.96449 9.35349 8.8992 9.33018 8.8488 9.28605C8.8232 9.26179 8.8028 9.23257 8.78887 9.20017C8.77493 9.16777 8.76774 9.13287 8.76774 9.0976C8.76774 9.06233 8.77493 9.02743 8.78887 8.99503C8.8028 8.96263 8.8232 8.93341 8.8488 8.90915C8.87274 8.88355 8.90175 8.86322 8.93399 8.84946C8.96622 8.83569 9.00097 8.8288 9.03602 8.82921C9.07107 8.82962 9.10564 8.83734 9.13754 8.85186C9.16944 8.86638 9.19796 8.88739 9.22129 8.91355ZM11.0119 11.3685L9.35328 9.71427L9.64657 9.42097L11.3052 11.0737L11.0119 11.3685Z" fill="black"/>
<path d="M11.0353 6.68295L12.8963 8.81675C13.0327 8.97367 13.1896 9.14965 13.3084 9.25671L13.0151 9.50895L12.7335 9.21564H12.7262C12.7637 9.37374 12.7561 9.5392 12.7043 9.6932C12.6524 9.8472 12.5584 9.98356 12.4329 10.0868C12.0062 10.4578 11.3638 10.3801 10.896 9.84772C10.3798 9.26111 10.4297 8.58357 10.8608 8.20961C10.9601 8.11432 11.0827 8.04692 11.2164 8.01422C11.35 7.98152 11.4899 7.98467 11.6219 8.02336L10.7039 6.96893L11.0353 6.68295ZM12.0619 8.50585C12.0226 8.46046 11.9783 8.41963 11.9299 8.38412C11.815 8.29827 11.674 8.25449 11.5307 8.26009C11.3873 8.2657 11.2503 8.32036 11.1424 8.41492C10.8095 8.70823 10.8682 9.16872 11.2084 9.55881C11.5193 9.91664 11.9519 10.0589 12.298 9.75679C12.4082 9.66023 12.482 9.52882 12.5071 9.38445C12.5322 9.24008 12.507 9.09148 12.4358 8.9634C12.4057 8.91069 12.3698 8.8615 12.3288 8.81675L12.0619 8.50585Z" fill="black"/>
<path d="M13.348 7.85911C13.6926 8.32107 14.1296 8.29907 14.4757 8.05123C14.66 7.92667 14.8155 7.76417 14.9318 7.5746L15.1679 7.77992C15.0277 8.00729 14.8407 8.20224 14.6194 8.35186C14.0328 8.77276 13.4081 8.64517 12.996 8.06589C12.584 7.48661 12.5972 6.79734 13.1515 6.39845C13.7718 5.95849 14.3247 6.38085 14.5798 6.72988C14.6186 6.78399 14.6534 6.84084 14.684 6.9L13.348 7.85911ZM14.1839 6.88387C14.0372 6.66096 13.6897 6.38672 13.304 6.66682C12.955 6.9176 13.0327 7.35023 13.1779 7.6098L14.1839 6.88387Z" fill="black"/>
<path d="M16.8382 6.87214L16.6579 6.63603H16.6461C16.6305 6.77382 16.5824 6.90597 16.506 7.02167C16.4295 7.13738 16.3268 7.23338 16.2062 7.30183C16.1305 7.35473 16.0448 7.39135 15.9542 7.4094C15.8637 7.42744 15.7705 7.42651 15.6803 7.40667C15.5902 7.38682 15.5051 7.34849 15.4306 7.29409C15.356 7.2397 15.2935 7.17042 15.2471 7.09065C14.9538 6.60376 15.231 6.08021 16.0111 5.62412L15.9877 5.58306C15.888 5.41588 15.6636 5.1431 15.2544 5.38948C15.0681 5.49947 14.9159 5.65884 14.8145 5.84997L14.5872 5.65932C14.7157 5.42194 14.9076 5.22494 15.1415 5.09031C15.7574 4.72368 16.1563 5.05511 16.3968 5.45841L16.85 6.20633C16.9434 6.36935 17.0509 6.52392 17.1711 6.66829L16.8382 6.87214ZM16.1681 5.87783C15.7633 6.10661 15.3527 6.44685 15.5815 6.83841C15.6051 6.88733 15.639 6.93056 15.6809 6.96514C15.7228 6.99972 15.7717 7.02484 15.8242 7.03877C15.8767 7.0527 15.9316 7.05511 15.9851 7.04584C16.0387 7.03657 16.0896 7.01584 16.1343 6.98506C16.2446 6.92511 16.3328 6.83136 16.3858 6.71759C16.4389 6.60381 16.4541 6.47602 16.4291 6.35299C16.4197 6.30775 16.4033 6.26422 16.3807 6.22393L16.1681 5.87783Z" fill="black"/>
<path d="M17.8985 4.88648C17.8558 4.79551 17.841 4.69389 17.856 4.59451C17.8711 4.49513 17.9154 4.40246 17.9832 4.32827C18.051 4.25407 18.1393 4.20169 18.2369 4.17776C18.3346 4.15384 18.4371 4.15945 18.5315 4.19388C18.626 4.22831 18.708 4.29002 18.7674 4.37117C18.8267 4.45232 18.8605 4.54927 18.8647 4.6497C18.8688 4.75013 18.843 4.84953 18.7906 4.93529C18.7382 5.02105 18.6615 5.0893 18.5702 5.13139C18.5101 5.15995 18.4449 5.17628 18.3784 5.1794C18.312 5.18253 18.2456 5.1724 18.1831 5.14961C18.1205 5.12682 18.0632 5.09181 18.0143 5.04664C17.9655 5.00146 17.9261 4.94702 17.8985 4.88648Z" fill="black"/>
</g>
<defs>
<clipPath id="clip0_17_2">
<rect width="60" height="60" fill="white"/>
</clipPath>
</defs>
</svg>
